<svg xmlns="http://www.w3.org/2000/svg" viewBox="0 0 24.001 21.868" overflow="visible" id="svg1891105544_2675"><path d="M 8.81 13.853 L 14.92 2.816 C 15.004 2.664 15.088 2.514 15.164 2.357 C 15.233 2.215 15.291 2.072 15.329 1.917 C 15.409 1.591 15.387 1.251 15.263 0.94 C 15.141 0.634 14.924 0.376 14.643 0.205 C 14.366 0.038 14.041 -0.03 13.721 0.012 C 13.401 0.055 13.108 0.206 12.877 0.442 C 12.767 0.552 12.677 0.677 12.594 0.81 C 12.502 0.956 12.419 1.108 12.335 1.26 L 11.949 1.957 L 11.562 1.259 C 11.478 1.108 11.395 0.956 11.303 0.81 C 11.222 0.678 11.127 0.554 11.02 0.441 C 10.794 0.208 10.497 0.057 10.176 0.012 C 9.855 -0.03 9.531 0.038 9.255 0.205 C 8.973 0.376 8.756 0.634 8.635 0.94 C 8.51 1.251 8.487 1.593 8.569 1.917 C 8.607 2.072 8.665 2.215 8.733 2.357 C 8.809 2.514 8.893 2.664 8.977 2.816 L 10.225 5.07 L 5.363 13.852 L 2.03 13.852 C 1.863 13.852 1.695 13.852 1.528 13.862 C 1.376 13.871 1.228 13.89 1.08 13.933 C 0.77 14.023 0.498 14.213 0.302 14.481 C -0.1 15.035 -0.101 15.784 0.301 16.337 C 0.498 16.605 0.769 16.794 1.08 16.885 C 1.228 16.928 1.376 16.947 1.528 16.956 C 1.695 16.966 1.863 16.966 2.031 16.966 L 15.128 16.966 C 15.168 16.879 15.201 16.789 15.228 16.696 C 15.643 15.28 14.612 13.852 13.193 13.852 Z M 3.114 17.475 L 2.322 18.975 C 2.24 19.131 2.157 19.285 2.083 19.446 C 2.014 19.591 1.96 19.743 1.923 19.898 C 1.842 20.232 1.865 20.581 1.987 20.901 C 2.108 21.219 2.321 21.484 2.594 21.656 C 2.866 21.828 3.183 21.898 3.495 21.853 C 3.809 21.809 4.095 21.655 4.321 21.413 C 4.429 21.298 4.517 21.171 4.599 21.035 C 4.689 20.885 4.77 20.729 4.852 20.573 L 6.001 18.397 C 5.911 18.247 5.054 16.927 3.114 17.475 M 23.7 14.469 C 23.507 14.208 23.233 14.018 22.921 13.929 C 22.774 13.889 22.624 13.865 22.473 13.858 C 22.305 13.848 22.138 13.848 21.97 13.848 L 18.649 13.848 L 14.259 6.033 C 13.683 6.638 13.307 7.406 13.183 8.231 C 13.022 9.264 13.214 10.321 13.729 11.231 L 19.003 20.624 C 19.087 20.774 19.17 20.924 19.262 21.068 C 19.346 21.198 19.436 21.321 19.545 21.432 C 19.776 21.664 20.069 21.812 20.39 21.855 C 20.71 21.897 21.033 21.831 21.312 21.665 C 21.592 21.498 21.81 21.243 21.933 20.939 C 22.058 20.632 22.079 20.297 21.999 19.975 C 21.959 19.825 21.904 19.68 21.834 19.541 C 21.759 19.386 21.674 19.238 21.59 19.088 L 20.374 16.922 L 21.97 16.922 C 22.138 16.922 22.305 16.922 22.473 16.913 C 22.625 16.904 22.773 16.885 22.921 16.843 C 23.233 16.754 23.507 16.564 23.701 16.302 C 23.896 16.037 24.001 15.716 24.001 15.386 C 24.001 15.057 23.896 14.736 23.701 14.47 Z" fill="var(--token-e8d61f06-9081-403d-89b7-1db2d4aa7ffc, rgb(35, 24, 5)) /* {&quot;name&quot;:&quot;500&quot;} */"/></svg>