<svg xmlns="http://www.w3.org/2000/svg" viewBox="0 0 24.001 18.293" overflow="visible" id="svg-988678253_2049"><path d="M 20.317 1.516 C 18.762 0.802 17.119 0.293 15.432 0.001 C 15.401 -0.005 15.369 0.01 15.353 0.038 C 15.143 0.413 14.909 0.902 14.745 1.288 C 12.927 1.012 11.077 1.012 9.258 1.288 C 9.076 0.861 8.87 0.443 8.641 0.038 C 8.625 0.011 8.594 -0.004 8.562 0.001 C 6.875 0.292 5.233 0.802 3.677 1.516 C 3.664 1.522 3.653 1.531 3.645 1.543 C 0.533 6.192 -0.32 10.726 0.099 15.203 C 0.102 15.226 0.113 15.246 0.13 15.26 C 1.942 16.603 3.969 17.627 6.123 18.29 C 6.155 18.299 6.188 18.288 6.207 18.262 C 6.671 17.633 7.081 16.966 7.433 16.268 C 7.443 16.249 7.445 16.226 7.437 16.206 C 7.429 16.186 7.413 16.17 7.392 16.162 C 6.746 15.915 6.12 15.617 5.52 15.27 C 5.498 15.257 5.484 15.234 5.482 15.209 C 5.481 15.183 5.492 15.158 5.512 15.142 C 5.639 15.048 5.763 14.951 5.884 14.85 C 5.906 14.833 5.936 14.829 5.961 14.84 C 9.889 16.633 14.141 16.633 18.023 14.84 C 18.049 14.828 18.08 14.832 18.101 14.85 C 18.221 14.948 18.347 15.048 18.474 15.142 C 18.495 15.158 18.506 15.182 18.505 15.207 C 18.504 15.233 18.49 15.256 18.468 15.269 C 17.87 15.619 17.244 15.917 16.595 16.161 C 16.575 16.169 16.559 16.185 16.551 16.206 C 16.543 16.226 16.545 16.249 16.554 16.268 C 16.914 16.966 17.326 17.63 17.779 18.261 C 17.799 18.288 17.832 18.299 17.863 18.289 C 20.022 17.628 22.052 16.603 23.865 15.259 C 23.883 15.247 23.895 15.227 23.897 15.205 C 24.397 10.028 23.059 5.531 20.348 1.545 C 20.342 1.532 20.331 1.521 20.317 1.515 Z M 8.02 12.476 C 6.837 12.476 5.863 11.391 5.863 10.057 C 5.863 8.724 6.819 7.638 8.02 7.638 C 9.23 7.638 10.196 8.734 10.177 10.058 C 10.177 11.391 9.221 12.476 8.02 12.476 Z M 15.995 12.476 C 14.812 12.476 13.838 11.391 13.838 10.057 C 13.838 8.724 14.793 7.638 15.995 7.638 C 17.205 7.638 18.171 8.734 18.152 10.058 C 18.152 11.391 17.206 12.476 15.995 12.476 Z" fill="var(--token-e8d61f06-9081-403d-89b7-1db2d4aa7ffc, rgb(35, 24, 5)) /* {&quot;name&quot;:&quot;500&quot;} */"/></svg>