<svg xmlns="http://www.w3.org/2000/svg" viewBox="0 0 24 23.912" overflow="visible" id="svg-98840648_884"><path d="M 9.101 23.647 L 9.101 15.667 L 6.627 15.667 L 6.627 12 L 9.101 12 L 9.101 10.42 C 9.101 6.335 10.949 4.442 14.959 4.442 C 15.36 4.442 15.914 4.484 16.427 4.545 C 16.811 4.585 17.192 4.65 17.568 4.74 L 17.568 8.065 C 17.351 8.045 17.133 8.033 16.915 8.029 C 16.671 8.023 16.426 8.02 16.182 8.02 C 15.475 8.02 14.923 8.116 14.507 8.329 C 14.227 8.469 13.992 8.685 13.828 8.951 C 13.57 9.371 13.454 9.946 13.454 10.703 L 13.454 12 L 17.373 12 L 16.987 14.103 L 16.7 15.667 L 13.454 15.667 L 13.454 23.912 C 19.396 23.194 24 18.135 24 12 C 24 5.373 18.627 0 12 0 C 5.373 0 0 5.373 0 12 C 0 17.628 3.874 22.35 9.101 23.647 Z" fill="var(--token-e8d61f06-9081-403d-89b7-1db2d4aa7ffc, rgb(35, 24, 5)) /* {&quot;name&quot;:&quot;500&quot;} */"/></svg>