<svg xmlns="http://www.w3.org/2000/svg" viewBox="0 0 23.956 24" overflow="visible" id="svg1175867827_1574"><path d="M 11.957 0 C 5.656 0 0.489 4.86 0 11.037 L 6.432 13.695 C 6.995 13.31 7.662 13.105 8.344 13.105 C 8.407 13.105 8.469 13.109 8.532 13.111 L 11.393 8.969 L 11.393 8.91 C 11.395 6.412 13.419 4.388 15.917 4.386 C 18.411 4.386 20.441 6.417 20.441 8.913 C 20.441 11.409 18.411 13.438 15.917 13.438 L 15.812 13.438 L 11.736 16.349 C 11.736 16.401 11.74 16.454 11.74 16.508 C 11.741 17.408 11.384 18.271 10.749 18.908 C 10.113 19.545 9.25 19.903 8.35 19.904 C 6.734 19.899 5.343 18.76 5.019 17.177 L 0.414 15.27 C 1.84 20.307 6.464 24 11.957 24 C 18.584 24 23.956 18.627 23.956 12 C 23.956 5.373 18.583 0 11.957 0 Z M 7.518 18.21 L 6.045 17.6 C 6.307 18.143 6.759 18.599 7.359 18.85 C 8.311 19.244 9.406 19.028 10.136 18.301 C 10.866 17.574 11.087 16.479 10.696 15.526 C 10.172 14.252 8.73 13.626 7.441 14.113 L 8.964 14.743 C 9.921 15.142 10.374 16.242 9.975 17.199 C 9.576 18.156 8.476 18.609 7.519 18.21 Z M 18.933 8.907 C 18.931 7.243 17.582 5.894 15.918 5.892 C 14.253 5.892 12.903 7.242 12.903 8.907 C 12.903 10.572 14.253 11.922 15.918 11.922 C 17.583 11.922 18.933 10.572 18.933 8.907 Z M 13.66 8.902 C 13.66 7.651 14.674 6.636 15.926 6.636 C 17.177 6.636 18.191 7.651 18.191 8.902 C 18.19 10.153 17.176 11.166 15.925 11.167 C 15.324 11.167 14.748 10.929 14.323 10.504 C 13.898 10.079 13.66 9.503 13.66 8.902 Z" fill="var(--token-e8d61f06-9081-403d-89b7-1db2d4aa7ffc, rgb(35, 24, 5)) /* {&quot;name&quot;:&quot;500&quot;} */"/></svg>