<svg xmlns="http://www.w3.org/2000/svg" viewBox="0 0 20.851 24" overflow="visible" id="svg-488339772_1132"><path d="M 10.951 0.02 C 12.261 0 13.561 0.01 14.861 0 C 14.941 1.53 15.491 3.09 16.611 4.17 C 17.731 5.28 19.311 5.79 20.851 5.96 L 20.851 9.99 C 19.411 9.94 17.961 9.64 16.651 9.02 C 16.081 8.76 15.551 8.43 15.031 8.09 C 15.021 11.01 15.041 13.93 15.011 16.84 C 14.931 18.24 14.471 19.63 13.661 20.78 C 12.351 22.7 10.081 23.95 7.751 23.99 C 6.321 24.07 4.891 23.68 3.671 22.96 C 1.651 21.77 0.231 19.59 0.021 17.25 C 0.001 16.75 -0.009 16.25 0.011 15.76 C 0.191 13.86 1.131 12.04 2.591 10.8 C 4.251 9.36 6.571 8.67 8.741 9.08 C 8.761 10.56 8.701 12.04 8.701 13.52 C 7.711 13.2 6.551 13.29 5.681 13.89 C 5.051 14.3 4.571 14.93 4.321 15.64 C 4.111 16.15 4.171 16.71 4.181 17.25 C 4.421 18.89 6.001 20.27 7.681 20.12 C 8.801 20.11 9.871 19.46 10.451 18.51 C 10.641 18.18 10.851 17.84 10.861 17.45 C 10.961 15.66 10.921 13.88 10.931 12.09 C 10.941 8.06 10.921 4.04 10.951 0.02 Z" fill="var(--token-e8d61f06-9081-403d-89b7-1db2d4aa7ffc, rgb(35, 24, 5)) /* {&quot;name&quot;:&quot;500&quot;} */"/></svg>